<svg width="32" height="32" viewBox="0 0 32 32" fill="none" xmlns="http://www.w3.org/2000/svg">
<g clip-path="url(#clip0_3608_6651)">
<path d="M24.6668 30H7.3335C6.22883 30 5.3335 29.1047 5.3335 28V4C5.3335 2.89533 6.22883 2 7.3335 2H20.0002L26.6668 8.66667V28C26.6668 29.1047 25.7715 30 24.6668 30Z" fill="#2196F3"/>
<path d="M26.6667 8.66667H20V2L26.6667 8.66667Z" fill="#BBDEFB"/>
<path d="M20 8.66669L26.6667 15.3334V8.66669H20Z" fill="#1565C0"/>
<path d="M10 15.3333H22V16.6666H10V15.3333ZM10 18H22V19.3333H10V18ZM10 20.6666H22V22H10V20.6666ZM10 23.3333H16.6667V24.6666H10V23.3333Z" fill="#E3F2FD"/>
<g clip-path="url(#clip1_3608_6651)" filter="url(#filter0_d_3608_6651)">
<path d="M19.625 25.7361C19.625 24.6471 19.625 24.1026 19.8369 23.6867C20.0234 23.3208 20.3208 23.0234 20.6867 22.8369C21.1026 22.625 21.6471 22.625 22.7361 22.625H25.2639C26.3529 22.625 26.8974 22.625 27.3133 22.8369C27.6792 23.0234 27.9766 23.3208 28.1631 23.6867C28.375 24.1026 28.375 24.6471 28.375 25.7361V28.2639C28.375 29.3529 28.375 29.8974 28.1631 30.3133C27.9766 30.6792 27.6792 30.9766 27.3133 31.1631C26.8974 31.375 26.3529 31.375 25.2639 31.375H22.7361C21.6471 31.375 21.1026 31.375 20.6867 31.1631C20.3208 30.9766 20.0234 30.6792 19.8369 30.3133C19.625 29.8974 19.625 29.3529 19.625 28.2639V25.7361Z" fill="white"/>
<path d="M24.0008 25.8909L22.9193 23.9822C22.9552 23.9457 22.9965 23.9217 23.0379 23.9056C22.7189 24.0105 22.5726 24.3687 22.5726 24.3687L20.5968 27.8546C20.569 27.9639 20.5613 28.0626 20.5647 28.1495H22.7212L24.0008 25.8909Z" fill="#34A853"/>
<path d="M24.0005 25.8909L25.2801 28.1495H27.4366C27.4401 28.0626 27.4323 27.9639 27.4045 27.8546L25.4288 24.3687C25.4288 24.3687 25.282 24.0105 24.9635 23.9056C25.0044 23.9217 25.0461 23.9457 25.082 23.9822L24.0005 25.8909Z" fill="#FBBC05"/>
<path d="M24.0005 25.891L25.082 23.9823C25.0461 23.9458 25.0044 23.9218 24.9635 23.9057C24.9164 23.8904 24.8658 23.8801 24.8109 23.8774H24.7538H23.2471H23.19C23.1356 23.8797 23.0846 23.89 23.0375 23.9057C22.9966 23.9218 22.9549 23.9458 22.9189 23.9823L24.0005 25.891Z" fill="#188038"/>
<path d="M22.7213 28.1495L21.6521 30.0365C21.6521 30.0365 21.6166 30.0192 21.5684 29.9834C21.7201 30.1002 21.8676 30.125 21.8676 30.125H26.0667C26.2984 30.125 26.3466 30.0365 26.3466 30.0365C26.3474 30.0361 26.3478 30.0357 26.3485 30.0353L25.2801 28.1495H22.7213Z" fill="#4285F4"/>
<path d="M22.7214 28.1495H20.5649C20.5758 28.4058 20.687 28.5556 20.687 28.5556L20.768 28.6963C20.7738 28.7046 20.7773 28.7093 20.7773 28.7093L20.9538 29.0191L21.3499 29.7086C21.3615 29.7366 21.375 29.7621 21.3893 29.7865C21.3947 29.7947 21.3997 29.8038 21.4055 29.8116C21.4071 29.814 21.4086 29.8164 21.4102 29.8187C21.4592 29.8879 21.514 29.9414 21.5689 29.9834C21.6171 30.0196 21.6526 30.0365 21.6526 30.0365L22.7214 28.1495Z" fill="#1967D2"/>
<path d="M25.2803 28.1495H27.4368C27.426 28.4058 27.3147 28.5556 27.3147 28.5556L27.2337 28.6963C27.2279 28.7046 27.2244 28.7093 27.2244 28.7093L27.0479 29.0191L26.6518 29.7086C26.6402 29.7366 26.6267 29.7621 26.6124 29.7865C26.607 29.7947 26.602 29.8038 26.5962 29.8116C26.5946 29.814 26.5931 29.8164 26.5915 29.8187C26.5425 29.8879 26.4877 29.9414 26.4328 29.9834C26.3846 30.0196 26.3491 30.0365 26.3491 30.0365L25.2803 28.1495Z" fill="#EA4335"/>
</g>
</g>
<defs>
<filter id="filter0_d_3608_6651" x="17" y="21" width="14" height="14" filterUnits="userSpaceOnUse" color-interpolation-filters="sRGB">
<feFlood flood-opacity="0" result="BackgroundImageFix"/>
<feColorMatrix in="SourceAlpha" type="matrix" values="0 0 0 0 0 0 0 0 0 0 0 0 0 0 0 0 0 0 127 0" result="hardAlpha"/>
<feOffset dy="1"/>
<feGaussianBlur stdDeviation="1"/>
<feColorMatrix type="matrix" values="0 0 0 0 0.0627451 0 0 0 0 0.0941176 0 0 0 0 0.156863 0 0 0 0.05 0"/>
<feBlend mode="normal" in2="BackgroundImageFix" result="effect1_dropShadow_3608_6651"/>
<feBlend mode="normal" in="SourceGraphic" in2="effect1_dropShadow_3608_6651" result="shape"/>
</filter>
<clipPath id="clip0_3608_6651">
<rect width="32" height="32" fill="white"/>
</clipPath>
<clipPath id="clip1_3608_6651">
<rect width="10" height="10" fill="white" transform="translate(19 22)"/>
</clipPath>
</defs>
</svg>
