<svg width="14" height="14" viewBox="0 0 14 14" fill="none" xmlns="http://www.w3.org/2000/svg">
<path d="M9.08829 7C9.08829 8.155 8.15495 9.08833 6.99995 9.08833C5.84495 9.08833 4.91162 8.155 4.91162 7C4.91162 5.845 5.84495 4.91167 6.99995 4.91167C8.15495 4.91167 9.08829 5.845 9.08829 7Z" stroke="#292D32" stroke-linecap="round" stroke-linejoin="round"/>
<path d="M6.99991 11.8242C9.05908 11.8242 10.9782 10.6108 12.3141 8.51083C12.8391 7.68833 12.8391 6.30583 12.3141 5.48333C10.9782 3.38333 9.05908 2.17 6.99991 2.17C4.94074 2.17 3.02158 3.38333 1.68574 5.48333C1.16074 6.30583 1.16074 7.68833 1.68574 8.51083C3.02158 10.6108 4.94074 11.8242 6.99991 11.8242Z" stroke="#292D32" stroke-linecap="round" stroke-linejoin="round"/>
</svg>
