<svg width="20" height="20" viewBox="0 0 20 20" fill="none" xmlns="http://www.w3.org/2000/svg">
<path d="M3.64148 14.7777L4.30485 15.921C4.44599 16.1609 4.64359 16.3444 4.86942 16.4855L7.22651 12.3924H2.51233C2.51233 12.6606 2.5829 12.9287 2.72404 13.1687L3.64148 14.7777Z" fill="#0066DA"/>
<path d="M15.1305 16.4855C15.3564 16.3444 15.554 16.1609 15.6951 15.921L15.9633 15.4552L17.2759 13.1828C17.4171 12.9428 17.4876 12.6747 17.4876 12.4065H12.7734L13.7756 14.3825L15.1305 16.4855Z" fill="#EA4335"/>
<path d="M10.0071 7.5935L12.3642 3.50035C12.1383 3.35921 11.8702 3.28864 11.5879 3.28864H8.41215C8.14398 3.28864 7.87581 3.35921 7.63586 3.50035L10.0071 7.5935Z" fill="#00832D"/>
<path d="M12.7735 12.4065H7.22654L4.86945 16.4996C5.09528 16.6408 5.36345 16.7114 5.64573 16.7114H14.3684C14.6366 16.7114 14.9047 16.6408 15.1447 16.4996L12.7735 12.4065Z" fill="#2684FC"/>
<path d="M15.1165 7.86168L12.9287 4.07904C12.7876 3.83909 12.59 3.65561 12.3642 3.51447L10.0071 7.60762L12.7735 12.4206H17.4877C17.4877 12.1524 17.4171 11.8843 17.276 11.6443L15.1165 7.86168Z" fill="#FFBA00"/>
<path d="M2.70994 11.6302C2.5688 11.8701 2.49823 12.1383 2.49823 12.4065H7.21241L9.97882 7.59351L7.62173 3.50035C7.3959 3.64149 7.1983 3.82498 7.05716 4.06492L4.88355 7.86168L2.70994 11.6302Z" fill="#00AC47"/>
</svg>
