<svg width="20" height="20" viewBox="0 0 20 20" fill="none" xmlns="http://www.w3.org/2000/svg">
<path d="M3.64148 14.7777L4.30485 15.921C4.44599 16.1609 4.64359 16.3444 4.86942 16.4855L7.22651 12.3924H2.51233C2.51233 12.6606 2.5829 12.9287 2.72404 13.1687L3.64148 14.7777Z" fill="#0066DA"/>
<path d="M15.1305 16.4855C15.3564 16.3444 15.554 16.1609 15.6951 15.921L15.9633 15.4552L17.2759 13.1828C17.4171 12.9428 17.4876 12.6747 17.4876 12.4065H12.7734L13.7756 14.3825L15.1305 16.4855Z" fill="#EA4335"/>
<path d="M10.0071 7.5935L12.3642 3.50035C12.1383 3.35921 11.8702 3.28864 11.5879 3.28864H8.41215C8.14398 3.28864 7.87581 3.35921 7.63586 3.50035L10.0071 7.5935Z" fill="#00832D"/>
<path d="M12.7734 12.4065H7.22648L4.86938 16.4996C5.09521 16.6408 5.36339 16.7114 5.64567 16.7114H14.3683C14.6365 16.7114 14.9047 16.6408 15.1446 16.4996L12.7734 12.4065Z" fill="#2684FC"/>
<path d="M15.1165 7.86168L12.9287 4.07904C12.7876 3.83909 12.59 3.65561 12.3642 3.51447L10.0071 7.60762L12.7735 12.4206H17.4877C17.4877 12.1524 17.4171 11.8843 17.276 11.6443L15.1165 7.86168Z" fill="#FFBA00"/>
<path d="M2.71001 11.6302C2.56886 11.8702 2.49829 12.1383 2.49829 12.4065H7.21248L9.97888 7.59352L7.62179 3.50037C7.39596 3.64151 7.19836 3.825 7.05722 4.06494L4.88361 7.86169L2.71001 11.6302Z" fill="#00AC47"/>
</svg>
