<svg width="32" height="32" viewBox="0 0 32 32" fill="none" xmlns="http://www.w3.org/2000/svg">
<path d="M0 16C3.70976e-07 11.7565 1.68571 7.68688 4.6863 4.6863C7.68688 1.68571 11.7565 1.46698e-06 16 0C20.2435 -1.46698e-06 24.3131 1.68571 27.3137 4.68627C30.3143 7.68688 32 11.7565 32 16H24C24 13.8783 23.1572 11.8434 21.6569 10.3431C20.1565 8.84285 18.1217 8 16 8C13.8783 8 11.8434 8.84285 10.3431 10.3431C8.84285 11.8434 8 13.8783 8 16H0Z" fill="black"/>
<path d="M24 16C24 18.1217 23.1572 20.1566 21.6569 21.6569C20.1566 23.1572 18.1217 24 16 24C13.8783 24 11.8434 23.1572 10.3431 21.6569C8.84285 20.1566 8 18.1217 8 16H24Z" fill="black"/>
<path fill-rule="evenodd" clip-rule="evenodd" d="M2.1405 24H29.8595C27.093 28.7824 21.9223 32 16 32C10.0777 32 4.90696 28.7824 2.1405 24Z" fill="black"/>
</svg>
