<svg width="16" height="16" viewBox="0 0 16 16" fill="none" xmlns="http://www.w3.org/2000/svg">
<path d="M3.33334 10.6667V8.66666C3.33334 8.48985 3.40357 8.32028 3.5286 8.19526C3.65362 8.07023 3.82319 8 4 8H12C12.1768 8 12.3464 8.07023 12.4714 8.19526C12.5964 8.32028 12.6667 8.48985 12.6667 8.66666V10.6667M8 8V5.33333M11.3333 10.6667H14C14.3682 10.6667 14.6667 10.9651 14.6667 11.3333V14C14.6667 14.3682 14.3682 14.6667 14 14.6667H11.3333C10.9651 14.6667 10.6667 14.3682 10.6667 14V11.3333C10.6667 10.9651 10.9651 10.6667 11.3333 10.6667ZM2 10.6667H4.66667C5.03486 10.6667 5.33334 10.9651 5.33334 11.3333V14C5.33334 14.3682 5.03486 14.6667 4.66667 14.6667H2C1.63181 14.6667 1.33334 14.3682 1.33334 14V11.3333C1.33334 10.9651 1.63181 10.6667 2 10.6667ZM6.66667 1.33333H9.33334C9.70153 1.33333 10 1.63181 10 1.99999V4.66666C10 5.03485 9.70153 5.33333 9.33334 5.33333H6.66667C6.29848 5.33333 6 5.03485 6 4.66666V1.99999C6 1.63181 6.29848 1.33333 6.66667 1.33333Z" stroke="#0000EE" stroke-width="1.3" stroke-linecap="round" stroke-linejoin="round"/>
</svg>
