<svg width="72" height="14" viewBox="0 0 72 14" fill="none" xmlns="http://www.w3.org/2000/svg">
<g clip-path="url(#clip0_688_6283)">
<path d="M0 7C1.62603e-07 5.14348 0.738866 3.36302 2.05406 2.05025C3.36926 0.737498 5.15302 6.41804e-07 7.01299 0C8.87296 -6.41803e-07 10.6567 0.737495 11.9719 2.05025C13.2871 3.36302 14.026 5.14348 14.026 7H10.5195C10.5195 6.07174 10.15 5.18149 9.49244 4.52511C8.83487 3.86876 7.94297 3.5 7.01299 3.5C6.083 3.5 5.19111 3.86876 4.53351 4.52514C3.87594 5.18149 3.50649 6.07174 3.50649 7H0Z" fill="black"/>
<path d="M10.5195 7C10.5195 7.92826 10.15 8.81851 9.49247 9.47489C8.83487 10.1312 7.94297 10.5 7.01299 10.5C6.083 10.5 5.19111 10.1312 4.53354 9.47489C3.87594 8.81851 3.50649 7.92826 3.50649 7H10.5195Z" fill="black"/>
<path fill-rule="evenodd" clip-rule="evenodd" d="M0.938213 10.5H13.0878C11.8752 12.5923 9.60879 14 7.01299 14C4.41719 14 2.15079 12.5923 0.938213 10.5Z" fill="black"/>
<path d="M20.5211 8.24768H19.3279V10.8565H17.737V2.91667H19.3279V7.45369H20.5211L22.2825 4.95833H23.987L21.9984 7.79399L24.1006 10.8565H22.2825L20.5211 8.24768Z" fill="black"/>
<path d="M29.3292 10.2893C29.7005 10.2893 30.0452 10.2251 30.3633 10.0965C30.6891 9.96797 31.0073 9.7865 31.3178 9.55208L31.7726 10.2326C31.6286 10.3612 31.4581 10.4784 31.2611 10.5842C31.0717 10.6901 30.8633 10.7809 30.6361 10.8565C30.4164 10.9245 30.1853 10.9775 29.9429 11.0153C29.7005 11.0607 29.458 11.0833 29.2156 11.0833C28.6777 11.0833 28.1853 11.0115 27.7384 10.8678C27.2989 10.7317 26.924 10.5313 26.6134 10.2667C26.3028 9.99445 26.0603 9.66174 25.8861 9.26853C25.7194 8.87532 25.6361 8.42159 25.6361 7.90742C25.6361 7.40077 25.7156 6.95085 25.8747 6.55763C26.0414 6.15686 26.2687 5.82416 26.5565 5.55949C26.852 5.28727 27.2005 5.08309 27.602 4.94698C28.0035 4.80331 28.4467 4.73147 28.9315 4.73147C29.3861 4.73147 29.8141 4.79954 30.2156 4.93565C30.6171 5.07177 30.9656 5.27215 31.2611 5.53681C31.5566 5.79392 31.7913 6.1077 31.9655 6.47824C32.1397 6.84877 32.227 7.26843 32.227 7.73727V8.53126H27.3747C27.4656 9.15886 27.6815 9.60879 28.0224 9.88101C28.3709 10.1532 28.8065 10.2893 29.3292 10.2893ZM28.9315 5.46874C28.7118 5.46874 28.5073 5.51034 28.3179 5.59353C28.1285 5.67669 27.9618 5.80904 27.8179 5.99051C27.6815 6.17198 27.5679 6.4064 27.477 6.69374C27.3937 6.98109 27.3482 7.32894 27.3406 7.73727H30.5224C30.5224 7.34406 30.477 7.0038 30.3861 6.71642C30.2952 6.42908 30.174 6.19469 30.0224 6.01319C29.8785 5.82416 29.708 5.68805 29.5111 5.60485C29.3217 5.51413 29.1285 5.46874 28.9315 5.46874Z" fill="black"/>
<path d="M40.9194 10.8565H39.3285V7.28358C39.3285 6.73913 39.192 6.34968 38.9193 6.11526C38.6465 5.87331 38.2526 5.75232 37.7373 5.75232H36.2603V10.8565H34.6694V4.95833H37.7373C38.8208 4.95833 39.6199 5.15492 40.1352 5.54814C40.6579 5.93379 40.9194 6.51227 40.9194 7.28358V10.8565Z" fill="black"/>
<path d="M43.8742 5.75232H42.7948V4.95833H43.8742V3.14353H45.465V4.95833H47.2264V5.75232H45.465V8.70137C45.465 8.98875 45.4956 9.23449 45.556 9.43864C45.6243 9.63527 45.7113 9.79785 45.8176 9.92637C45.931 10.0474 46.0597 10.1381 46.2037 10.1986C46.3477 10.2591 46.4992 10.2893 46.6585 10.2893C46.8857 10.2893 47.1054 10.2553 47.3174 10.1873C47.5297 10.1116 47.7076 10.0322 47.8516 9.94908L48.1923 10.6864C47.9651 10.7998 47.7039 10.8943 47.4084 10.9699C47.1204 11.0455 46.8327 11.0833 46.5447 11.0833C45.6885 11.0833 45.0296 10.8716 44.5674 10.4481C44.1054 10.0247 43.8742 9.44244 43.8742 8.70137V5.75232Z" fill="black"/>
<path d="M54.7253 5.75232H53.3617C52.8464 5.75232 52.4525 5.89219 52.1797 6.17198C51.907 6.4442 51.7708 6.85253 51.7708 7.39698V10.8565H50.1796V7.39698C50.1796 6.6257 50.4221 6.02831 50.9071 5.60485C51.3996 5.17384 52.104 4.95833 53.0207 4.95833H54.7253V5.75232Z" fill="black"/>
<path d="M59.6042 10.3461C59.8463 10.3461 60.0739 10.3007 60.2858 10.21C60.4981 10.1192 60.6835 9.97933 60.8428 9.79026C61.0018 9.59367 61.1268 9.34036 61.2178 9.03031C61.3163 8.72029 61.3655 8.34599 61.3655 7.90742C61.3655 7.46881 61.3163 7.09452 61.2178 6.78449C61.1268 6.47447 61.0018 6.22493 60.8428 6.03587C60.6835 5.83928 60.4981 5.69561 60.2858 5.60485C60.0739 5.51413 59.8463 5.46874 59.6042 5.46874C59.3617 5.46874 59.1344 5.51413 58.9222 5.60485C58.7102 5.69561 58.5245 5.83928 58.3655 6.03587C58.2062 6.22493 58.0775 6.47447 57.979 6.78449C57.888 7.09452 57.8428 7.46881 57.8428 7.90742C57.8428 8.34599 57.888 8.72029 57.979 9.03031C58.0775 9.34036 58.2062 9.59367 58.3655 9.79026C58.5245 9.97933 58.7102 10.1192 58.9222 10.21C59.1344 10.3007 59.3617 10.3461 59.6042 10.3461ZM59.6042 4.73147C60.1116 4.73147 60.5776 4.80331 61.0018 4.94698C61.4335 5.08309 61.8009 5.28727 62.1039 5.55949C62.4072 5.82416 62.6419 6.15686 62.8086 6.55763C62.9829 6.95085 63.0698 7.40077 63.0698 7.90742C63.0698 8.42159 62.9829 8.87532 62.8086 9.26853C62.6419 9.66174 62.4072 9.99445 62.1039 10.2667C61.8009 10.5313 61.4335 10.7317 61.0018 10.8678C60.5776 11.0115 60.1116 11.0833 59.6042 11.0833C59.0889 11.0833 58.6192 11.0115 58.195 10.8678C57.7708 10.7317 57.4071 10.5313 57.1041 10.2667C56.8011 9.99445 56.5624 9.66174 56.3882 9.26853C56.2214 8.87532 56.1382 8.42159 56.1382 7.90742C56.1382 7.40077 56.2214 6.95085 56.3882 6.55763C56.5624 6.15686 56.8011 5.82416 57.1041 5.55949C57.4071 5.28727 57.7708 5.08309 58.195 4.94698C58.6192 4.80331 59.0889 4.73147 59.6042 4.73147Z" fill="black"/>
<path d="M71.7653 10.8565H70.1745V7.28358C70.1745 6.73913 70.0379 6.34968 69.7652 6.11526C69.4925 5.87331 69.0988 5.75232 68.5836 5.75232H67.1062V10.8565H65.5153V4.95833H68.5836C69.6667 4.95833 70.4662 5.15492 70.9811 5.54814C71.5041 5.93379 71.7653 6.51227 71.7653 7.28358V10.8565Z" fill="black"/>
</g>
<defs>
<clipPath id="clip0_688_6283">
<rect width="72" height="14" fill="white"/>
</clipPath>
</defs>
</svg>
