<svg width="232" height="46" viewBox="0 0 232 46" fill="none" xmlns="http://www.w3.org/2000/svg">
<path d="M0.876465 23C0.876465 17.0326 3.24699 11.3097 7.46656 7.0901C11.6861 2.87053 17.4091 0.500002 23.3765 0.5C29.3438 0.499998 35.0668 2.87052 39.2864 7.09009C43.5059 11.3097 45.8765 17.0326 45.8765 23L34.6265 23C34.6265 20.0163 33.4412 17.1548 31.3314 15.045C29.2216 12.9353 26.3601 11.75 23.3765 11.75C20.3928 11.75 17.5313 12.9353 15.4215 15.045C13.3117 17.1548 12.1265 20.0163 12.1265 23H0.876465Z" fill="black"/>
<path d="M34.6265 23C34.6265 25.9837 33.4412 28.8452 31.3314 30.955C29.2216 33.0647 26.3602 34.25 23.3765 34.25C20.3928 34.25 17.5313 33.0647 15.4215 30.955C13.3117 28.8452 12.1265 25.9837 12.1265 23L34.6265 23Z" fill="black"/>
<path fill-rule="evenodd" clip-rule="evenodd" d="M3.88656 34.25H42.8664C38.976 40.9753 31.7046 45.5 23.3765 45.5C15.0483 45.5 7.77692 40.9753 3.88656 34.25Z" fill="black"/>
<path d="M66.715 27.0104H62.8869V35.3958H57.7827V9.875H62.8869V24.4583H66.715L72.366 16.4375H77.8348L71.4546 25.5521L78.1994 35.3958H72.366L66.715 27.0104Z" fill="black"/>
<path d="M94.9745 33.5729C96.1655 33.5729 97.2714 33.3663 98.2922 32.9531C99.3373 32.5399 100.358 31.9566 101.355 31.2031L102.813 33.3906C102.351 33.8038 101.804 34.1806 101.172 34.5208C100.565 34.8611 99.8964 35.1528 99.1672 35.3958C98.4623 35.6146 97.721 35.7847 96.9432 35.9062C96.1655 36.0521 95.3877 36.125 94.6099 36.125C92.8842 36.125 91.3043 35.8941 89.8703 35.4323C88.4606 34.9948 87.2575 34.3507 86.2609 33.5C85.2644 32.625 84.4866 31.5556 83.9276 30.2917C83.3929 29.0278 83.1255 27.5694 83.1255 25.9167C83.1255 24.2882 83.3807 22.842 83.8912 21.5781C84.4259 20.2899 85.155 19.2205 86.0787 18.3698C87.0266 17.4948 88.1446 16.8385 89.4328 16.401C90.721 15.9392 92.1429 15.7083 93.6984 15.7083C95.1568 15.7083 96.53 15.9271 97.8182 16.3646C99.1064 16.8021 100.224 17.4462 101.172 18.2969C102.12 19.1233 102.874 20.1319 103.433 21.3229C103.992 22.5139 104.271 23.8628 104.271 25.3698V27.9219H88.7037C88.9953 29.9392 89.688 31.3854 90.7818 32.2604C91.8998 33.1354 93.2974 33.5729 94.9745 33.5729ZM93.6984 18.0781C92.9936 18.0781 92.3373 18.2118 91.7297 18.4792C91.1221 18.7465 90.5873 19.1719 90.1255 19.7552C89.688 20.3385 89.3234 21.092 89.0318 22.0156C88.7644 22.9392 88.6186 24.0573 88.5943 25.3698H98.8026C98.8026 24.1059 98.6568 23.0122 98.3651 22.0885C98.0734 21.1649 97.6846 20.4115 97.1984 19.8281C96.7366 19.2205 96.1898 18.783 95.5578 18.5156C94.9502 18.224 94.3304 18.0781 93.6984 18.0781Z" fill="black"/>
<path d="M132.159 35.3958H127.055V23.9115C127.055 22.1615 126.617 20.9097 125.742 20.1562C124.867 19.3785 123.604 18.9896 121.951 18.9896H117.211V35.3958H112.107V16.4375H121.951C125.426 16.4375 127.991 17.0694 129.644 18.3333C131.321 19.5729 132.159 21.4323 132.159 23.9115V35.3958Z" fill="black"/>
<path d="M141.64 18.9896H138.176V16.4375H141.64V10.6042H146.744V16.4375H152.395V18.9896H146.744V28.4687C146.744 29.3924 146.841 30.1823 147.036 30.8385C147.254 31.4705 147.534 31.9931 147.874 32.4062C148.239 32.7951 148.652 33.0868 149.114 33.2812C149.575 33.4757 150.062 33.5729 150.572 33.5729C151.301 33.5729 152.006 33.4635 152.687 33.2448C153.367 33.0017 153.938 32.7465 154.4 32.4792L155.494 34.849C154.765 35.2135 153.926 35.5174 152.978 35.7604C152.055 36.0035 151.131 36.125 150.207 36.125C147.461 36.125 145.346 35.4444 143.864 34.0833C142.381 32.7222 141.64 30.8507 141.64 28.4687V18.9896Z" fill="black"/>
<path d="M176.453 18.9896H172.078C170.425 18.9896 169.161 19.4392 168.286 20.3385C167.411 21.2135 166.974 22.526 166.974 24.276V35.3958H161.87V24.276C161.87 21.7969 162.648 19.8767 164.203 18.5156C165.783 17.1302 168.043 16.4375 170.984 16.4375H176.453V18.9896Z" fill="black"/>
<path d="M192.106 33.7552C192.884 33.7552 193.613 33.6094 194.294 33.3177C194.974 33.026 195.57 32.5764 196.08 31.9688C196.59 31.3368 196.991 30.5226 197.283 29.526C197.599 28.5295 197.757 27.3264 197.757 25.9167C197.757 24.5069 197.599 23.3038 197.283 22.3073C196.991 21.3108 196.59 20.5087 196.08 19.901C195.57 19.2691 194.974 18.8073 194.294 18.5156C193.613 18.224 192.884 18.0781 192.106 18.0781C191.328 18.0781 190.599 18.224 189.919 18.5156C189.238 18.8073 188.642 19.2691 188.132 19.901C187.622 20.5087 187.208 21.3108 186.892 22.3073C186.601 23.3038 186.455 24.5069 186.455 25.9167C186.455 27.3264 186.601 28.5295 186.892 29.526C187.208 30.5226 187.622 31.3368 188.132 31.9688C188.642 32.5764 189.238 33.026 189.919 33.3177C190.599 33.6094 191.328 33.7552 192.106 33.7552ZM192.106 15.7083C193.734 15.7083 195.229 15.9392 196.59 16.401C197.976 16.8385 199.155 17.4948 200.127 18.3698C201.099 19.2205 201.853 20.2899 202.387 21.5781C202.946 22.842 203.226 24.2882 203.226 25.9167C203.226 27.5694 202.946 29.0278 202.387 30.2917C201.853 31.5556 201.099 32.625 200.127 33.5C199.155 34.3507 197.976 34.9948 196.59 35.4323C195.229 35.8941 193.734 36.125 192.106 36.125C190.453 36.125 188.946 35.8941 187.585 35.4323C186.224 34.9948 185.057 34.3507 184.085 33.5C183.113 32.625 182.347 31.5556 181.788 30.2917C181.254 29.0278 180.986 27.5694 180.986 25.9167C180.986 24.2882 181.254 22.842 181.788 21.5781C182.347 20.2899 183.113 19.2205 184.085 18.3698C185.057 17.4948 186.224 16.8385 187.585 16.401C188.946 15.9392 190.453 15.7083 192.106 15.7083Z" fill="black"/>
<path d="M231.124 35.3958H226.019V23.9115C226.019 22.1615 225.582 20.9097 224.707 20.1562C223.832 19.3785 222.568 18.9896 220.915 18.9896H216.176V35.3958H211.071V16.4375H220.915C224.391 16.4375 226.955 17.0694 228.608 18.3333C230.285 19.5729 231.124 21.4323 231.124 23.9115V35.3958Z" fill="black"/>
</svg>
