<svg width="244" height="193" viewBox="0 0 244 193" fill="none" xmlns="http://www.w3.org/2000/svg">
<path d="M142.779 70.4397C127.785 70.5291 112.559 69.8313 98.3171 65.8772C84.0751 61.923 71.479 54.462 60.0281 45.7486C52.5314 40.0768 45.7145 35.568 35.9812 36.2479C26.4645 36.7481 17.3616 40.2989 10.0198 46.3748C-2.36148 57.2174 -0.48281 77.2565 4.4554 91.3555C11.8985 112.593 34.5498 127.336 53.7838 136.944C76.0236 148.055 100.446 154.514 124.941 158.218C146.411 161.474 173.983 163.854 192.573 149.827C209.659 136.962 214.347 107.548 210.16 87.6876C209.141 81.8217 206.018 76.5288 201.375 72.8014C189.37 64.0343 171.478 69.885 157.987 70.1892C153.067 70.2965 147.896 70.4218 142.779 70.4397Z" fill="#F2F2F2"/>
<path d="M69.6714 1.00024V8.69383" stroke="#CFCFCF" stroke-width="0.6375" stroke-linecap="round" stroke-linejoin="round"/>
<path d="M65.8252 4.84692H73.5188" stroke="#CFCFCF" stroke-width="0.6375" stroke-linecap="round" stroke-linejoin="round"/>
<path d="M215.635 154.353V162.046" stroke="#CFCFCF" stroke-width="0.6375" stroke-linecap="round" stroke-linejoin="round"/>
<path d="M211.789 158.199H219.482" stroke="#CFCFCF" stroke-width="0.6375" stroke-linecap="round" stroke-linejoin="round"/>
<path d="M11.5405 121.128C12.5089 121.128 13.294 120.343 13.294 119.374C13.294 118.406 12.5089 117.621 11.5405 117.621C10.5721 117.621 9.78711 118.406 9.78711 119.374C9.78711 120.343 10.5721 121.128 11.5405 121.128Z" fill="#CFCFCF"/>
<path d="M160.832 8.94435C161.8 8.94435 162.585 8.15931 162.585 7.19092C162.585 6.22254 161.8 5.4375 160.832 5.4375C159.864 5.4375 159.079 6.22254 159.079 7.19092C159.079 8.15931 159.864 8.94435 160.832 8.94435Z" fill="#CFCFCF"/>
<path d="M112.237 193C148.502 193 177.901 191.173 177.901 188.92C177.901 186.667 148.502 184.841 112.237 184.841C75.972 184.841 46.5732 186.667 46.5732 188.92C46.5732 191.173 75.972 193 112.237 193Z" fill="#F2F2F2"/>
<path d="M61.6565 21.8984H157.021C159.394 21.8984 161.669 22.841 163.347 24.5187C165.025 26.1964 165.967 28.4718 165.967 30.8445V144.298C165.967 146.671 165.025 148.946 163.347 150.624C161.669 152.302 159.394 153.244 157.021 153.244H49.4363C47.0636 153.244 44.7882 152.302 43.1105 150.624C41.4328 148.946 40.4902 146.671 40.4902 144.298V43.2794L61.6565 21.8984Z" fill="white" stroke="#BABABA" stroke-width="0.75" stroke-linecap="round" stroke-linejoin="round"/>
<path d="M165.537 77.1848H67.2026V154.335H165.537V77.1848Z" fill="#D2D2D2"/>
<path d="M40.4902 43.2794H57.8276C58.8448 43.2747 59.8186 42.8673 60.5362 42.1464C61.2537 41.4255 61.6565 40.4498 61.6565 39.4327V21.8984L40.4902 43.2794Z" fill="white" stroke="#BABABA" stroke-width="0.75" stroke-linecap="round" stroke-linejoin="round"/>
<path d="M165.054 52.5474H67.7931C64.0085 52.5474 60.9404 55.6154 60.9404 59.4V80.2085C60.9404 83.9931 64.0085 87.0611 67.7931 87.0611H165.054C168.839 87.0611 171.907 83.9931 171.907 80.2085V59.4C171.907 55.6154 168.839 52.5474 165.054 52.5474Z" fill="white" stroke="#BABABA" stroke-width="0.75" stroke-linecap="round" stroke-linejoin="round"/>
<path d="M79.8343 75.8249C83.1348 75.8249 85.8103 73.1494 85.8103 69.849C85.8103 66.5486 83.1348 63.873 79.8343 63.873C76.5339 63.873 73.8584 66.5486 73.8584 69.849C73.8584 73.1494 76.5339 75.8249 79.8343 75.8249Z" fill="#D2D2D2"/>
<path d="M98.621 75.8249C101.921 75.8249 104.597 73.1494 104.597 69.849C104.597 66.5486 101.921 63.873 98.621 63.873C95.3205 63.873 92.645 66.5486 92.645 69.849C92.645 73.1494 95.3205 75.8249 98.621 75.8249Z" fill="#D2D2D2"/>
<path d="M117.39 75.8249C120.69 75.8249 123.366 73.1494 123.366 69.849C123.366 66.5486 120.69 63.873 117.39 63.873C114.09 63.873 111.414 66.5486 111.414 69.849C111.414 73.1494 114.09 75.8249 117.39 75.8249Z" fill="#D2D2D2"/>
<path d="M165.054 90.8003H67.7931C64.0085 90.8003 60.9404 93.8683 60.9404 97.653V118.461C60.9404 122.246 64.0085 125.314 67.7931 125.314H165.054C168.839 125.314 171.907 122.246 171.907 118.461V97.653C171.907 93.8683 168.839 90.8003 165.054 90.8003Z" fill="white" stroke="#BABABA" stroke-width="0.75" stroke-linecap="round" stroke-linejoin="round"/>
<path d="M79.8343 114.095C83.1348 114.095 85.8103 111.42 85.8103 108.119C85.8103 104.819 83.1348 102.144 79.8343 102.144C76.5339 102.144 73.8584 104.819 73.8584 108.119C73.8584 111.42 76.5339 114.095 79.8343 114.095Z" fill="#D2D2D2"/>
<path d="M98.621 114.095C101.921 114.095 104.597 111.42 104.597 108.119C104.597 104.819 101.921 102.144 98.621 102.144C95.3205 102.144 92.645 104.819 92.645 108.119C92.645 111.42 95.3205 114.095 98.621 114.095Z" fill="#D2D2D2"/>
<path d="M117.39 114.095C120.69 114.095 123.366 111.42 123.366 108.119C123.366 104.819 120.69 102.144 117.39 102.144C114.09 102.144 111.414 104.819 111.414 108.119C111.414 111.42 114.09 114.095 117.39 114.095Z" fill="#D2D2D2"/>
<path d="M165.054 129.072H67.7931C64.0085 129.072 60.9404 132.14 60.9404 135.924V156.733C60.9404 160.518 64.0085 163.586 67.7931 163.586H165.054C168.839 163.586 171.907 160.518 171.907 156.733V135.924C171.907 132.14 168.839 129.072 165.054 129.072Z" fill="white" stroke="#BABABA" stroke-width="0.75" stroke-linecap="round" stroke-linejoin="round"/>
<path d="M79.8343 152.35C83.1348 152.35 85.8103 149.674 85.8103 146.374C85.8103 143.073 83.1348 140.398 79.8343 140.398C76.5339 140.398 73.8584 143.073 73.8584 146.374C73.8584 149.674 76.5339 152.35 79.8343 152.35Z" fill="#D2D2D2"/>
<path d="M98.621 152.35C101.921 152.35 104.597 149.674 104.597 146.374C104.597 143.073 101.921 140.398 98.621 140.398C95.3205 140.398 92.645 143.073 92.645 146.374C92.645 149.674 95.3205 152.35 98.621 152.35Z" fill="#D2D2D2"/>
<path d="M117.39 152.35C120.69 152.35 123.366 149.674 123.366 146.374C123.366 143.073 120.69 140.398 117.39 140.398C114.09 140.398 111.414 143.073 111.414 146.374C111.414 149.674 114.09 152.35 117.39 152.35Z" fill="#D2D2D2"/>
<path d="M173.857 96.1324C194.342 96.1324 210.948 79.5265 210.948 59.0421C210.948 38.5578 194.342 21.9519 173.857 21.9519C153.373 21.9519 136.767 38.5578 136.767 59.0421C136.767 79.5265 153.373 96.1324 173.857 96.1324Z" fill="white" stroke="#BABABA" stroke-width="0.75" stroke-linecap="round" stroke-linejoin="round"/>
<path d="M200.195 85.9517L210.071 95.8281" stroke="#BABABA" stroke-width="0.75" stroke-linecap="round" stroke-linejoin="round"/>
<path d="M208.967 91.0338L205.901 94.2413C204.522 95.6841 204.573 97.9719 206.016 99.3512L232.659 124.82C234.102 126.199 236.389 126.148 237.769 124.705L240.835 121.498C242.214 120.055 242.163 117.767 240.72 116.388L214.077 90.9188C212.635 89.5395 210.347 89.591 208.967 91.0338Z" fill="white" stroke="#BABABA" stroke-width="0.75" stroke-linecap="round" stroke-linejoin="round"/>
</svg>
