<svg width="72" height="72" viewBox="0 0 72 72" fill="none" xmlns="http://www.w3.org/2000/svg">
<path d="M9.75 68H62.25C65.4256 68 68 65.4256 68 62.25V29.3257C68 27.6388 67.2593 26.037 65.974 24.9445L45.0676 7.17414C42.6569 5.12507 39.5962 4 36.4323 4H36.1425C33.0344 4 30.0239 5.08585 27.6314 7.06989L6.07957 24.9421C4.76227 26.0345 4 27.6569 4 29.3682V62.25C4 65.4256 6.57436 68 9.75 68Z" fill="url(#paint0_linear_6261_82021)"/>
<path d="M9.75 68H62.25C65.4256 68 68 65.4256 68 62.25V29.3257C68 27.6388 67.2593 26.037 65.974 24.9445L45.0676 7.17414C42.6569 5.12507 39.5962 4 36.4323 4H36.1425C33.0344 4 30.0239 5.08585 27.6314 7.06989L6.07957 24.9421C4.76227 26.0345 4 27.6569 4 29.3682V62.25C4 65.4256 6.57436 68 9.75 68Z" fill="url(#paint1_linear_6261_82021)"/>
<path d="M9.75 68H62.25C65.4256 68 68 65.4256 68 62.25V29.3257C68 27.6388 67.2593 26.037 65.974 24.9445L45.0676 7.17414C42.6569 5.12507 39.5962 4 36.4323 4H36.1425C33.0344 4 30.0239 5.08585 27.6314 7.06989L6.07957 24.9421C4.76227 26.0345 4 27.6569 4 29.3682V62.25C4 65.4256 6.57436 68 9.75 68Z" fill="url(#paint2_linear_6261_82021)"/>
<path opacity="0.3" d="M68 62.25C68 65.4256 65.4256 68 62.25 68H9.75C6.57436 68 4 65.4256 4 62.25V60.25C4 63.4256 6.57436 66 9.75 66H62.25C65.4256 66 68 63.4256 68 60.25V62.25Z" fill="black"/>
<path opacity="0.1" d="M36.4326 4C39.5962 4.00008 42.6568 5.12498 45.0674 7.17383L65.9736 24.9443C67.2589 26.0368 68 27.6393 68 29.3262V30.3252C67.9999 28.6385 67.2588 27.0367 65.9736 25.9443L45.0674 8.17383C42.6568 6.12497 39.5963 5.00008 36.4326 5H36.1426C33.0344 5 30.0243 6.08629 27.6318 8.07031L6.0791 25.9424C4.76206 27.0348 4.00001 28.657 4 30.3682V29.3682C4.00002 27.657 4.76206 26.0348 6.0791 24.9424L27.6318 7.07031C30.0243 5.0863 33.0345 4 36.1426 4H36.4326Z" fill="white"/>
<path opacity="0.3" d="M25 41L32 48L47 33" stroke="black" stroke-width="6" stroke-linecap="round" stroke-linejoin="round"/>
<path d="M25 40L32 47L47 32" stroke="url(#paint3_linear_6261_82021)" stroke-width="6" stroke-linecap="round" stroke-linejoin="round"/>
<path d="M25 40L32 47L47 32" stroke="url(#paint4_linear_6261_82021)" stroke-width="6" stroke-linecap="round" stroke-linejoin="round"/>
<path opacity="0.2" d="M49.9561 31.5068C50.1015 32.3822 49.8608 33.3091 49.2276 34.0098L49.1211 34.1211L34.1211 49.1211C32.9496 50.2926 31.0505 50.2926 29.8789 49.1211L22.8789 42.1211L22.7725 42.0098C22.1393 41.3091 21.8976 40.3822 22.043 39.5068C22.1357 40.0508 22.3788 40.5741 22.7725 41.0098L22.8789 41.1211L29.8789 48.1211C31.0505 49.2926 32.9496 49.2926 34.1211 48.1211L49.1211 33.1211L49.2276 33.0098C49.6212 32.5742 49.8634 32.0507 49.9561 31.5068Z" fill="black"/>
<path opacity="0.1" d="M44.9901 29.7724C46.1677 28.7081 47.9859 28.7438 49.1209 29.8788C49.8361 30.594 50.1138 31.5803 49.9559 32.5068C49.8569 31.9109 49.5807 31.3386 49.1209 30.8788C47.9859 29.7438 46.1677 29.7081 44.9901 30.7724L44.8788 30.8788L31.9998 43.7577L27.1209 38.8788L27.0096 38.7724C25.832 37.7081 24.0138 37.7438 22.8788 38.8788C22.419 39.3386 22.1418 39.9108 22.0428 40.5068C21.885 39.5803 22.1636 38.594 22.8788 37.8788C24.0138 36.7438 25.832 36.7081 27.0096 37.7724L27.1209 37.8788L31.9998 42.7577L44.8788 29.8788L44.9901 29.7724Z" fill="white"/>
<defs>
<linearGradient id="paint0_linear_6261_82021" x1="64" y1="-0.857142" x2="25.1429" y2="75.1428" gradientUnits="userSpaceOnUse">
<stop stop-color="#2A446F"/>
<stop offset="1" stop-color="#091F2C"/>
</linearGradient>
<linearGradient id="paint1_linear_6261_82021" x1="36" y1="1.66667" x2="36" y2="68" gradientUnits="userSpaceOnUse">
<stop stop-color="white" stop-opacity="0.1"/>
<stop offset="0.0231654" stop-color="white" stop-opacity="0"/>
<stop offset="0.986083" stop-opacity="0"/>
<stop offset="1" stop-opacity="0.3"/>
</linearGradient>
<linearGradient id="paint2_linear_6261_82021" x1="68" y1="36" x2="4" y2="36" gradientUnits="userSpaceOnUse">
<stop stop-color="white" stop-opacity="0.1"/>
<stop offset="0.0153665" stop-color="white" stop-opacity="0"/>
<stop offset="0.983741" stop-opacity="0"/>
<stop offset="1" stop-opacity="0.3"/>
</linearGradient>
<linearGradient id="paint3_linear_6261_82021" x1="64.4167" y1="36.7656" x2="31.3493" y2="62.6287" gradientUnits="userSpaceOnUse">
<stop offset="0.136628" stop-color="#49C5B1"/>
<stop offset="0.759599" stop-color="#0078D4"/>
</linearGradient>
<linearGradient id="paint4_linear_6261_82021" x1="21.4632" y1="48.8269" x2="33.2671" y2="29.393" gradientUnits="userSpaceOnUse">
<stop offset="0.149799" stop-color="#C03BC4"/>
<stop offset="1" stop-color="#C03BC4" stop-opacity="0"/>
</linearGradient>
</defs>
</svg>
