<svg width="32" height="32" viewBox="0 0 32 32" fill="none" xmlns="http://www.w3.org/2000/svg">
<g clip-path="url(#clip0_3612_5334)">
<path d="M24.6667 30H7.33337C6.22871 30 5.33337 29.1047 5.33337 28V4C5.33337 2.89533 6.22871 2 7.33337 2H20L26.6667 8.66667V28C26.6667 29.1047 25.7714 30 24.6667 30Z" fill="#43A047"/>
<path d="M26.6667 8.66667H20V2L26.6667 8.66667Z" fill="#C8E6C9"/>
<path d="M20 8.66669L26.6667 15.3334V8.66669H20Z" fill="#2E7D32"/>
<path d="M20.6667 15.3333H11.3333H10V16.6666V18V19.3333V20.6666V22V23.3333V24.6666H22V23.3333V22V20.6666V19.3333V18V16.6666V15.3333H20.6667ZM11.3333 16.6666H14V18H11.3333V16.6666ZM11.3333 19.3333H14V20.6666H11.3333V19.3333ZM11.3333 22H14V23.3333H11.3333V22ZM20.6667 23.3333H15.3333V22H20.6667V23.3333ZM20.6667 20.6666H15.3333V19.3333H20.6667V20.6666ZM20.6667 18H15.3333V16.6666H20.6667V18Z" fill="#E8F5E9"/>
<g clip-path="url(#clip1_3612_5334)" filter="url(#filter0_d_3612_5334)">
<path d="M19.625 25.7361C19.625 24.6471 19.625 24.1026 19.8369 23.6867C20.0234 23.3208 20.3208 23.0234 20.6867 22.8369C21.1026 22.625 21.6471 22.625 22.7361 22.625H25.2639C26.3529 22.625 26.8974 22.625 27.3133 22.8369C27.6792 23.0234 27.9766 23.3208 28.1631 23.6867C28.375 24.1026 28.375 24.6471 28.375 25.7361V28.2639C28.375 29.3529 28.375 29.8974 28.1631 30.3133C27.9766 30.6792 27.6792 30.9766 27.3133 31.1631C26.8974 31.375 26.3529 31.375 25.2639 31.375H22.7361C21.6471 31.375 21.1026 31.375 20.6867 31.1631C20.3208 30.9766 20.0234 30.6792 19.8369 30.3133C19.625 29.8974 19.625 29.3529 19.625 28.2639V25.7361Z" fill="white"/>
<path d="M26.265 26.955L26.225 26.9C26.155 26.815 26.0725 26.7475 25.9775 26.6975C25.85 26.625 25.705 26.5875 25.555 26.5875H22.4425C22.2925 26.5875 22.15 26.625 22.02 26.6975C21.9225 26.75 21.835 26.8225 21.7625 26.9125C21.62 27.095 21.5525 27.32 21.575 27.545L21.6675 28.7125C21.7 29.065 21.7425 29.5 22.535 29.5H25.465C26.2575 29.5 26.2975 29.065 26.3325 28.71L26.425 27.5475C26.4475 27.3375 26.3925 27.1275 26.265 26.955ZM24.5975 28.335H23.4C23.3025 28.335 23.225 28.255 23.225 28.16C23.225 28.065 23.3025 27.985 23.4 27.985H24.5975C24.695 27.985 24.7725 28.065 24.7725 28.16C24.7725 28.2575 24.695 28.335 24.5975 28.335Z" fill="#475569"/>
<path d="M26.0501 25.7569C26.1583 26.0105 25.8333 26.215 25.5575 26.215H22.4425C22.1624 26.215 21.845 26.0225 21.845 25.7425V25.665C21.845 24.7725 22.1175 24.5 23.01 24.5H23.305C23.6625 24.5 23.775 24.615 23.92 24.8025L24.22 25.2025C24.2825 25.2875 24.285 25.2925 24.395 25.2925H24.99C25.5846 25.2925 25.9036 25.4137 26.0501 25.7569Z" fill="#475569"/>
</g>
</g>
<defs>
<filter id="filter0_d_3612_5334" x="17" y="21" width="14" height="14" filterUnits="userSpaceOnUse" color-interpolation-filters="sRGB">
<feFlood flood-opacity="0" result="BackgroundImageFix"/>
<feColorMatrix in="SourceAlpha" type="matrix" values="0 0 0 0 0 0 0 0 0 0 0 0 0 0 0 0 0 0 127 0" result="hardAlpha"/>
<feOffset dy="1"/>
<feGaussianBlur stdDeviation="1"/>
<feColorMatrix type="matrix" values="0 0 0 0 0.0627451 0 0 0 0 0.0941176 0 0 0 0 0.156863 0 0 0 0.05 0"/>
<feBlend mode="normal" in2="BackgroundImageFix" result="effect1_dropShadow_3612_5334"/>
<feBlend mode="normal" in="SourceGraphic" in2="effect1_dropShadow_3612_5334" result="shape"/>
</filter>
<clipPath id="clip0_3612_5334">
<rect width="32" height="32" fill="white"/>
</clipPath>
<clipPath id="clip1_3612_5334">
<rect width="10" height="10" fill="white" transform="translate(19 22)"/>
</clipPath>
</defs>
</svg>
