<svg width="20" height="20" viewBox="0 0 20 20" fill="none" xmlns="http://www.w3.org/2000/svg">
<path d="M17.55 9.85L17.4166 9.66667C17.1833 9.38333 16.9083 9.15833 16.5916 8.99167C16.1666 8.75 15.6833 8.625 15.1833 8.625H4.80829C4.30829 8.625 3.83329 8.75 3.39996 8.99167C3.07496 9.16667 2.78329 9.40833 2.54163 9.70833C2.06663 10.3167 1.84163 11.0667 1.91663 11.8167L2.22496 15.7083C2.33329 16.8833 2.47496 18.3333 5.11663 18.3333H14.8833C17.525 18.3333 17.6583 16.8833 17.775 15.7L18.0833 11.825C18.1583 11.125 17.975 10.425 17.55 9.85ZM11.9916 14.45H7.99996C7.67496 14.45 7.41663 14.1833 7.41663 13.8667C7.41663 13.55 7.67496 13.2833 7.99996 13.2833H11.9916C12.3166 13.2833 12.575 13.55 12.575 13.8667C12.575 14.1917 12.3166 14.45 11.9916 14.45Z" fill="#475569"/>
<path d="M17.1187 7.01932C17.1641 7.40133 16.747 7.66018 16.3781 7.55127C15.9988 7.43932 15.6023 7.38334 15.1918 7.38334H4.80844C4.39277 7.38334 3.98284 7.4436 3.59549 7.55908C3.23115 7.6677 2.81677 7.41841 2.81677 7.03822V5.55C2.81677 2.575 3.72511 1.66667 6.70011 1.66667H7.68344C8.87511 1.66667 9.25011 2.05001 9.73344 2.67501L10.7334 4.00834C10.9418 4.29167 10.9501 4.30834 11.3168 4.30834H13.3001C15.8458 4.30834 16.8757 4.97479 17.1187 7.01932Z" fill="#475569"/>
</svg>
