<svg width="20" height="20" viewBox="0 0 20 20" fill="none" xmlns="http://www.w3.org/2000/svg">
<path d="M16.5626 9.37485C17.4255 9.37485 18.125 8.67536 18.125 7.81249C18.125 6.94962 17.4254 6.25012 16.5626 6.25012C15.6996 6.25012 15 6.94968 15 7.81262V9.37485H16.5626ZM12.1875 9.37485C13.0504 9.37485 13.75 8.6753 13.75 7.81235V3.43762C13.75 2.57468 13.0504 1.87512 12.1875 1.87512C11.3246 1.87512 10.625 2.57468 10.625 3.43762V7.81235C10.625 8.6753 11.3246 9.37485 12.1875 9.37485Z" fill="#2EB67D"/>
<path d="M3.43737 10.6251C2.5745 10.6251 1.875 11.3246 1.875 12.1875C1.875 13.0504 2.57456 13.7499 3.43743 13.7499C4.30038 13.7499 5 13.0503 5 12.1874V10.6251H3.43737ZM7.8125 10.6251C6.94956 10.6251 6.25 11.3247 6.25 12.1876V16.5624C6.25 17.4253 6.94956 18.1249 7.8125 18.1249C8.67544 18.1249 9.375 17.4253 9.375 16.5624V12.1876C9.375 11.3247 8.67544 10.6251 7.8125 10.6251Z" fill="#E01E5A"/>
<path d="M10.625 16.5626C10.625 17.4255 11.3245 18.125 12.1874 18.125C13.0503 18.125 13.7498 17.4254 13.7498 16.5626C13.7498 15.6996 13.0502 15 12.1873 15L10.625 15L10.625 16.5626ZM10.625 12.1875C10.625 13.0504 11.3246 13.75 12.1875 13.75L16.5623 13.75C17.4252 13.75 18.1248 13.0504 18.1248 12.1875C18.1248 11.3246 17.4252 10.625 16.5623 10.625L12.1875 10.625C11.3246 10.625 10.625 11.3246 10.625 12.1875Z" fill="#ECB22E"/>
<path d="M9.37473 3.43737C9.37473 2.5745 8.67524 1.875 7.81237 1.875C6.9495 1.875 6.25 2.57456 6.25 3.43743C6.25 4.30038 6.94956 5 7.8125 5L9.37473 5L9.37473 3.43737ZM9.37473 7.8125C9.37473 6.94956 8.67518 6.25 7.81223 6.25L3.4375 6.25C2.57456 6.25 1.875 6.94956 1.875 7.8125C1.875 8.67544 2.57456 9.375 3.4375 9.375L7.81223 9.375C8.67518 9.375 9.37473 8.67545 9.37473 7.8125Z" fill="#36C5F0"/>
</svg>
